<svg id="Layer_2" height="512" viewBox="0 0 128 128" width="512" xmlns="http://www.w3.org/2000/svg" data-name="Layer 2"><path d="m45.812 1.656a18.188 18.188 0 0 0 -18.187 18.188v.042a15.479 15.479 0 0 0 -13.104 22.282 27.1 27.1 0 0 0 -.821 45.474 15.494 15.494 0 0 0 13.925 20.284v.042a18.188 18.188 0 1 0 36.375 0v-88.124a18.188 18.188 0 0 0 -18.188-18.188z" fill="#ff6ca8"/><g fill="#284cb2"><circle cx="90.937" cy="91.906" r="5.188"/><circle cx="98" cy="121.156" r="5.187"/><circle cx="101.937" cy="77.906" r="5.187"/><circle cx="121.062" cy="77.344" r="5.188"/><circle cx="115.875" cy="52.094" r="5.187"/><circle cx="115.875" cy="99.644" r="5.187"/><circle cx="121.062" cy="35.573" r="5.188"/><circle cx="105.562" cy="11.822" r="5.188"/><circle cx="82.931" cy="63.74" r="5.187"/></g><path d="m30.6 47.462a1.75 1.75 0 0 0 -1.75-1.75 19.477 19.477 0 0 0 -19.45 19.455 1.75 1.75 0 1 0 3.5 0 15.973 15.973 0 0 1 15.951-15.955 1.75 1.75 0 0 0 1.749-1.75z"/><path d="m3.5 65.167a25.228 25.228 0 0 1 11.947-21.515 1.75 1.75 0 0 0 .646-2.253 13.73 13.73 0 0 1 11.627-19.766 1.75 1.75 0 0 0 1.657-1.748c0-.022 0-.051 0-.08a16.439 16.439 0 0 1 29.88-9.424 1.75 1.75 0 0 0 2.86-2.018 19.939 19.939 0 0 0 -36.182 9.937 17.258 17.258 0 0 0 -14.749 17.07 17.025 17.025 0 0 0 1.144 6.151 28.687 28.687 0 0 0 -12.33 23.646 1.75 1.75 0 0 0 3.5 0z"/><path d="m4.977 73.715a1.75 1.75 0 1 0 -3.295 1.185c.3.842.647 1.681 1.027 2.492a1.75 1.75 0 0 0 3.17-1.492c-.334-.709-.637-1.445-.902-2.185z"/><path d="m55.969 20.228a10.156 10.156 0 1 0 -20.312 0 1.75 1.75 0 0 0 3.5 0 6.656 6.656 0 1 1 13.313 0 1.75 1.75 0 0 0 3.5 0z"/><path d="m36.627 58.531a1.75 1.75 0 0 0 0 3.5 12.123 12.123 0 0 0 12.109-12.109v-5.657a12.123 12.123 0 0 0 -12.109-12.109h-.75a1.75 1.75 0 0 0 0 3.5h.75a8.618 8.618 0 0 1 8.609 8.609v5.657a8.618 8.618 0 0 1 -8.609 8.609z"/><path d="m47 79.656a1.75 1.75 0 0 0 0-3.5h-10a10.136 10.136 0 0 1 -10.125-10.125 1.75 1.75 0 0 0 -3.5 0 13.641 13.641 0 0 0 13.625 13.625z"/><path d="m55.125 102.156a1.75 1.75 0 0 0 -1.75-1.75 12.514 12.514 0 0 1 -12.5-12.5 1.75 1.75 0 0 0 -3.5 0 16.018 16.018 0 0 0 16 16 1.75 1.75 0 0 0 1.75-1.75z"/><path d="m28.027 100.225a1.829 1.829 0 0 0 .261.019 1.75 1.75 0 0 0 .257-3.481 5.357 5.357 0 0 1 -4.5-6.083 1.75 1.75 0 1 0 -3.461-.519 8.862 8.862 0 0 0 7.443 10.064z"/><path d="m46.25 118.744a1.75 1.75 0 1 0 0-3.5 7.508 7.508 0 0 1 -7.5-7.5 1.75 1.75 0 0 0 -3.5 0 11.012 11.012 0 0 0 11 11z"/><path d="m121.062 70.406a6.885 6.885 0 0 0 -3.5.96l-22.7-22.7a1.75 1.75 0 0 0 -1.237-.513h-27.875v-10.83h48.607a6.938 6.938 0 1 0 0-3.5h-48.607v-7.833h27.875a1.75 1.75 0 0 0 1.237-.513l7.5-7.5a6.951 6.951 0 1 0 -2.6-2.349l-6.862 6.862h-27.15v-2.646a1.75 1.75 0 0 0 -3.5 0v88.125a16.438 16.438 0 0 1 -32.875.039c0-.028 0-.058 0-.081a1.75 1.75 0 0 0 -1.657-1.748 13.744 13.744 0 0 1 -12.354-18 1.75 1.75 0 0 0 -.685-1.992 25.476 25.476 0 0 1 -3.8-3.146 1.75 1.75 0 1 0 -2.479 2.472 29.012 29.012 0 0 0 3.285 2.842 17.239 17.239 0 0 0 14.253 21.16 19.938 19.938 0 0 0 39.815-1.546v-.312h19.147l7.458 9.478a6.969 6.969 0 1 0 2.687-2.245l-7.92-10.065a1.75 1.75 0 0 0 -1.375-.668h-20v-10.5h18.482a6.938 6.938 0 1 0 0-3.5h-18.482v-10.5h29.481a6.938 6.938 0 1 0 0-3.5h-29.481v-10.5h10.519a6.939 6.939 0 1 0 -.086-3.5h-10.433v-10.5h27.15l22.185 22.184a6.931 6.931 0 1 0 5.978-3.434zm0-38.271a3.438 3.438 0 1 1 -3.437 3.438 3.441 3.441 0 0 1 3.437-3.438zm-15.5-23.751a3.437 3.437 0 1 1 -3.437 3.437 3.441 3.441 0 0 1 3.437-3.437zm-4.125 112.772a3.437 3.437 0 1 1 -3.437-3.437 3.441 3.441 0 0 1 3.437 3.437zm-10.5-32.687a3.438 3.438 0 1 1 -3.437 3.437 3.441 3.441 0 0 1 3.437-3.437zm11-14a3.438 3.438 0 1 1 -3.437 3.437 3.441 3.441 0 0 1 3.437-3.437zm-19.006-14.169a3.438 3.438 0 1 1 -3.437 3.438 3.441 3.441 0 0 1 3.437-3.438zm38.131 20.479a3.438 3.438 0 1 1 3.438-3.437 3.441 3.441 0 0 1 -3.438 3.439z"/><path d="m115.875 45.156a6.938 6.938 0 1 0 6.937 6.938 6.946 6.946 0 0 0 -6.937-6.938zm0 10.375a3.438 3.438 0 1 1 3.437-3.437 3.441 3.441 0 0 1 -3.437 3.437z"/><path d="m115.875 92.707a6.938 6.938 0 1 0 6.937 6.938 6.946 6.946 0 0 0 -6.937-6.938zm0 10.375a3.438 3.438 0 1 1 3.437-3.438 3.441 3.441 0 0 1 -3.437 3.438z"/></svg>