<svg id="Capa_1" enable-background="new 0 0 512 512" height="512" viewBox="0 0 512 512" width="512" xmlns="http://www.w3.org/2000/svg"><g><path d="m240.692 66.761h30.616v82.322h-30.616z" fill="#faea5e"/><path d="m454.694 54.005c0-4.767 1.539-9.173 4.141-12.757h-226.818c-7.045 0-12.757 5.711-12.757 12.757 0 7.045 5.711 12.757 12.757 12.757h226.817c-2.601-3.584-4.14-7.99-4.14-12.757z" fill="#ffd600"/><g><path d="m286.719 188.884h-61.437c-2.761 0-5-2.239-5-5v-29.801c0-2.761 2.239-5 5-5h61.437c2.761 0 5 2.239 5 5v29.801c0 2.762-2.239 5-5 5z" fill="#fd4755"/></g><g><path d="m251.563 183.884v-29.801c0-2.761 2.239-5 5-5h-31.281c-2.761 0-5 2.239-5 5v29.801c0 2.761 2.239 5 5 5h31.281c-2.762 0-5-2.238-5-5z" fill="#fb2b3a"/></g><path d="m458.835 442.997h-405.67c-2.519 0-4.987-.213-7.395-.605v32.344c0 2.761 2.239 5 5 5h410.46c2.761 0 5-2.239 5-5v-32.344c-2.408.393-4.876.605-7.395.605z" fill="#faea5e"/><path d="m91.54 474.736v-31.739h-38.375c-2.519 0-4.987-.213-7.395-.605v32.344c0 2.761 2.239 5 5 5h45.77c-2.761 0-5-2.238-5-5z" fill="#ffd600"/><g><g><path d="m489.192 173.279v-101.674c-3.584 2.602-7.989 4.14-12.757 4.14s-9.173-1.539-12.757-4.14v101.673h25.514z" fill="#ffd600"/><path d="m494.5 173.279h-36.129c-5.523 0-10 4.477-10 10v58.673h4.59c1.657 0 3 1.343 3 3v100.074h2.874c25.22 0 45.665 20.445 45.665 45.665v-207.412c0-5.523-4.477-10-10-10z" fill="#faea5e"/><path d="m452.961 241.952c1.657 0 3 1.343 3 3v100.074h2.874c3.496 0 6.895.406 10.165 1.15v-162.897c0-5.523 4.477-10 10-10h-20.629c-5.523 0-10 4.477-10 10v58.673z" fill="#ffd600"/><g><circle cx="476.435" cy="54.005" fill="#9facba" r="21.741"/></g><g><path d="m476.518 54.005c0-8.029 4.356-15.036 10.829-18.802-3.208-1.866-6.933-2.94-10.912-2.94-12.007 0-21.741 9.734-21.741 21.741s9.734 21.741 21.741 21.741c3.978 0 7.704-1.074 10.912-2.94-6.474-3.764-10.829-10.771-10.829-18.8z" fill="#8d9ca8"/></g></g><path d="m163.195 345.026v-100.074c0-1.657-1.343-3-3-3h-101.156c-1.657 0-3 1.343-3 3v100.074z" fill="#ea9b58"/><path d="m87.844 345.026v-100.074c0-1.657 1.343-3 3-3h-31.805c-1.657 0-3 1.343-3 3v100.074z" fill="#d88a55"/><path d="m309.578 345.026v-100.074c0-1.657-1.343-3-3-3h-101.156c-1.657 0-3 1.343-3 3v100.074z" fill="#ea9b58"/><path d="m233.844 345.026v-100.074c0-1.657 1.343-3 3-3h-31.422c-1.657 0-3 1.343-3 3v100.074z" fill="#d88a55"/><g><path d="m242.735 288.929h26.53c1.657 0 3-1.343 3-3v-43.977h-32.53v43.977c0 1.657 1.343 3 3 3z" fill="#fd4755"/></g><path d="m455.961 345.026v-100.074c0-1.657-1.343-3-3-3h-101.156c-1.657 0-3 1.343-3 3v100.074z" fill="#ea9b58"/><path d="m379.844 345.026v-100.074c0-1.657 1.343-3 3-3h-31.039c-1.657 0-3 1.343-3 3v100.074z" fill="#d88a55"/><g><path d="m389.118 288.929h26.53c1.657 0 3-1.343 3-3v-43.977h-32.53v43.977c0 1.657 1.343 3 3 3z" fill="#fd4755"/></g></g><g><path d="m458.835 442.997h-405.67c-25.22 0-45.665-20.445-45.665-45.665v-6.641c0-25.22 20.445-45.665 45.665-45.665h405.67c25.22 0 45.665 20.445 45.665 45.665v6.641c0 25.22-20.445 45.665-45.665 45.665z" fill="#596c76"/></g><g><path d="m55.878 422.975c-14.247-1.948-25.262-14.19-25.262-28.963 0-14.774 11.014-27.015 25.261-28.963 8.216-12.084 22.073-20.023 37.787-20.023h-40.5c-25.22 0-45.665 20.445-45.665 45.665v6.641c0 25.22 20.445 45.665 45.665 45.665h40.5c-15.713 0-29.57-7.938-37.786-20.022z" fill="#465a61"/></g><g><g><circle cx="59.857" cy="394.012" fill="#fff" r="21.741"/></g><g><path d="m59 394.012c0-8.222 4.566-15.377 11.299-19.072-3.099-1.701-6.657-2.669-10.442-2.669-12.007 0-21.741 9.734-21.741 21.741s9.734 21.741 21.741 21.741c3.785 0 7.343-.969 10.442-2.669-6.733-3.695-11.299-10.85-11.299-19.072z" fill="#f2fbff"/></g><g><circle cx="138.314" cy="394.012" fill="#fff" r="21.741"/></g><g><circle cx="216.771" cy="394.012" fill="#fff" r="21.741"/></g><g><path d="m215.914 394.012c0-8.222 4.566-15.377 11.299-19.072-3.099-1.701-6.657-2.669-10.442-2.669-12.007 0-21.741 9.734-21.741 21.741s9.734 21.741 21.741 21.741c3.785 0 7.343-.969 10.442-2.669-6.733-3.695-11.299-10.85-11.299-19.072z" fill="#f2fbff"/></g><g><circle cx="295.229" cy="394.012" fill="#fff" r="21.741"/></g><g><path d="m294.371 394.012c0-8.222 4.566-15.377 11.299-19.072-3.099-1.701-6.657-2.669-10.442-2.669-12.007 0-21.741 9.734-21.741 21.741s9.734 21.741 21.741 21.741c3.785 0 7.343-.969 10.442-2.669-6.733-3.695-11.299-10.85-11.299-19.072z" fill="#f2fbff"/></g><g><circle cx="373.686" cy="394.012" fill="#fff" r="21.741"/></g><g><path d="m372.829 394.012c0-8.222 4.566-15.377 11.299-19.072-3.099-1.701-6.657-2.669-10.442-2.669-12.007 0-21.741 9.734-21.741 21.741s9.734 21.741 21.741 21.741c3.785 0 7.343-.969 10.442-2.669-6.734-3.695-11.299-10.85-11.299-19.072z" fill="#f2fbff"/></g><g><circle cx="452.143" cy="394.012" fill="#fff" r="21.741"/></g><g><path d="m137.457 394.012c0-8.222 4.566-15.377 11.299-19.072-3.099-1.701-6.657-2.669-10.442-2.669-12.007 0-21.741 9.734-21.741 21.741s9.734 21.741 21.741 21.741c3.785 0 7.343-.969 10.442-2.669-6.733-3.695-11.299-10.85-11.299-19.072z" fill="#f2fbff"/></g><g><path d="m451.286 394.012c0-8.222 4.566-15.377 11.299-19.072-3.099-1.701-6.657-2.669-10.442-2.669-12.007 0-21.741 9.734-21.741 21.741s9.734 21.741 21.741 21.741c3.785 0 7.343-.969 10.442-2.669-6.734-3.695-11.299-10.85-11.299-19.072z" fill="#f2fbff"/></g></g><g><path d="m496.692 165.931v-90.868c5.532-5.323 8.984-12.793 8.984-21.058 0-16.124-13.117-29.241-29.241-29.241-8.265 0-15.735 3.453-21.058 8.984h-223.36c-11.17 0-20.257 9.087-20.257 20.257s9.087 20.257 20.257 20.257h1.175v67.321h-7.911c-6.893 0-12.5 5.607-12.5 12.5v29.802c0 6.893 5.607 12.5 12.5 12.5h61.438c6.893 0 12.5-5.607 12.5-12.5v-29.802c0-6.893-5.607-12.5-12.5-12.5h-7.911v-67.321h86.192c4.143 0 7.5-3.357 7.5-7.5s-3.357-7.5-7.5-7.5h-132.982c-2.898 0-5.257-2.358-5.257-5.257s2.358-5.257 5.257-5.257h215.659c-.311 1.707-.482 3.462-.482 5.257 0 1.796.172 3.55.484 5.257h-47.679c-4.143 0-7.5 3.357-7.5 7.5s3.357 7.5 7.5 7.5h55.385c.261.271.522.541.793.801v90.868c-8.616 1.084-15.308 8.442-15.308 17.347v51.174h-89.066c-5.79 0-10.5 4.71-10.5 10.5v92.574h-24.227v-92.574c0-5.79-4.71-10.5-10.5-10.5h-101.155c-5.79 0-10.5 4.71-10.5 10.5v92.574h-24.227v-33.526c0-4.143-3.357-7.5-7.5-7.5s-7.5 3.357-7.5 7.5v33.526h-92.156v-88.074h92.156v19.548c0 4.143 3.357 7.5 7.5 7.5s7.5-3.357 7.5-7.5v-24.048c0-5.79-4.71-10.5-10.5-10.5h-101.156c-5.79 0-10.5 4.71-10.5 10.5v92.788c-27.156 2.354-48.539 25.196-48.539 52.951v6.641c0 24.145 16.184 44.568 38.27 51.026v26.378c0 6.893 5.607 12.5 12.5 12.5h300.23c4.143 0 7.5-3.357 7.5-7.5s-3.357-7.5-7.5-7.5h-297.73v-21.739h405.46v21.739h-72.73c-4.143 0-7.5 3.357-7.5 7.5s3.357 7.5 7.5 7.5h75.23c6.893 0 12.5-5.607 12.5-12.5v-26.378c22.086-6.458 38.27-26.881 38.27-51.026v-214.054c0-8.905-6.692-16.263-15.308-17.347zm-212.473 15.454h-56.438v-24.802h56.438zm-20.411-39.802h-15.615v-67.321h15.615zm217.884 24.195h-10.514v-83.014c1.707.311 3.462.482 5.257.482s3.55-.171 5.257-.482zm8.985-111.773c0 7.853-6.389 14.241-14.241 14.241s-14.241-6.389-14.241-14.241 6.389-14.241 14.241-14.241 14.241 6.388 14.241 14.241zm-97.059 195.447h17.529v31.978h-17.529zm-37.313 0h22.313v36.478c0 5.79 4.71 10.5 10.5 10.5h26.529c5.79 0 10.5-4.71 10.5-10.5v-36.478h22.313v88.074h-92.156v-88.074zm-109.07 0h17.529v31.978h-17.529zm-37.313 0h22.313v36.478c0 5.79 4.71 10.5 10.5 10.5h26.529c5.79 0 10.5-4.71 10.5-10.5v-36.478h22.313v88.074h-92.156v-88.074zm287.078 147.88c0 21.044-17.121 38.165-38.165 38.165h-405.67c-21.044 0-38.165-17.121-38.165-38.165v-6.641c0-21.044 17.121-38.165 38.165-38.165h405.67c21.044 0 38.165 17.121 38.165 38.165zm0-43.589c-8.664-8.941-20.423-14.866-33.539-16.003v-92.788c0-4.78-3.213-8.815-7.59-10.081v-51.593c0-1.379 1.121-2.5 2.5-2.5h36.129c1.379 0 2.5 1.121 2.5 2.5z"/><path d="m59.857 364.771c-16.124 0-29.241 13.117-29.241 29.241s13.117 29.241 29.241 29.241 29.241-13.117 29.241-29.241-13.117-29.241-29.241-29.241zm0 43.482c-7.853 0-14.241-6.389-14.241-14.241s6.389-14.241 14.241-14.241 14.241 6.389 14.241 14.241-6.388 14.241-14.241 14.241z"/><path d="m216.771 364.771c-16.124 0-29.241 13.117-29.241 29.241s13.117 29.241 29.241 29.241 29.241-13.117 29.241-29.241-13.116-29.241-29.241-29.241zm0 43.482c-7.853 0-14.241-6.389-14.241-14.241s6.389-14.241 14.241-14.241 14.241 6.389 14.241 14.241-6.388 14.241-14.241 14.241z"/><path d="m295.229 364.771c-16.124 0-29.241 13.117-29.241 29.241s13.117 29.241 29.241 29.241 29.241-13.117 29.241-29.241-13.117-29.241-29.241-29.241zm0 43.482c-7.853 0-14.241-6.389-14.241-14.241s6.389-14.241 14.241-14.241 14.241 6.389 14.241 14.241-6.389 14.241-14.241 14.241z"/><path d="m373.686 364.771c-16.124 0-29.241 13.117-29.241 29.241s13.117 29.241 29.241 29.241 29.241-13.117 29.241-29.241-13.117-29.241-29.241-29.241zm0 43.482c-7.853 0-14.241-6.389-14.241-14.241s6.389-14.241 14.241-14.241 14.241 6.389 14.241 14.241-6.389 14.241-14.241 14.241z"/><path d="m138.314 364.771c-16.124 0-29.241 13.117-29.241 29.241s13.117 29.241 29.241 29.241 29.241-13.117 29.241-29.241-13.117-29.241-29.241-29.241zm0 43.482c-7.853 0-14.241-6.389-14.241-14.241s6.389-14.241 14.241-14.241 14.241 6.389 14.241 14.241-6.388 14.241-14.241 14.241z"/><path d="m452.143 364.771c-16.124 0-29.241 13.117-29.241 29.241s13.117 29.241 29.241 29.241 29.241-13.117 29.241-29.241-13.117-29.241-29.241-29.241zm0 43.482c-7.853 0-14.241-6.389-14.241-14.241s6.389-14.241 14.241-14.241 14.241 6.389 14.241 14.241-6.389 14.241-14.241 14.241z"/></g></g></svg>