<svg xmlns="http://www.w3.org/2000/svg" viewBox="0 0 592.77 164.67"><defs><style>.cls-1{fill:none;}.cls-2{fill:#f47e60;fill-rule:evenodd;}.cls-3{fill:#e15b64;}.cls-4{fill:#981a23;}.cls-5{fill:#e6e7e8;}</style></defs><title>logo-dark</title><g id="Layer_2" data-name="Layer 2"><g id="Layer_1-2" data-name="Layer 1"><path class="cls-1"/><path class="cls-2" d="M125.34,99.77C119,105.19,98.8,116.24,93,122.24c11.62-12,23.05-26.15,22.66-42.62-.19-7.17-3.87-12.4-6-19-1.16-1.94-2.33-3.68-3.49-5.62-4.26,8.52-10.85,16.46-17.63,24.21,6.78-13,8.33-27.89,3.3-41.26a69,69,0,0,0-3.68-7.56C74,12.79,61.41,0,61.41,0A439.27,439.27,0,0,0,26,44.36c-.19.2-.19.39-.39.78a65.15,65.15,0,0,0-5,14.53,66.32,66.32,0,0,0,.59,30.22c1,3.68,2.9,15.3,8.13,16.66a38,38,0,0,1-15.69-8.14c-2.71-2.32-12-11.23-9.69-15.11C0,89.69,0,97.25,0,104.22c0,38.56,28.28,59.48,63,59.48s63-21.12,63-59.67a33.57,33.57,0,0,0-.39-4.46A.19.19,0,0,1,125.34,99.77Z"/><path class="cls-3" d="M90.28,137.74a30.14,30.14,0,0,0-2.72-12.21c1,1.94-2.51,7.17-3.1,7.75-.38.58-3.1,4.27-5.61,5,2.32-.77,2.9-6.59,3.29-8.52,1-5.23.19-9.69-.78-14.73a31.7,31.7,0,0,0-2.13-7.36c0-.19-.19-.19-.19-.39a199.07,199.07,0,0,0-15.3-22.47s-5.43,6.39-11.63,15.5a23.49,23.49,0,0,0-1.55,3.87C48.24,111,49,118.56,51.92,125.15c-2.91-3.88-5.81-8-7.56-12.21-.58,1-1,1.94-1.55,2.91-1,3.29-2.52,6-2.71,9.68-.19,8.33,5.62,16.28,10.66,22.48-2.52-3.1-12-9.5-14.73-12.21l-.19-.19c0,.77-.19,1.55-.19,2.32,0,11.63,4.45,20.15,11,25.19a86.17,86.17,0,0,0,32.54,0C85.82,157.89,90.28,149.36,90.28,137.74Z"/><path class="cls-4" d="M85.05,146.26c.19-2.13.58-6.39-1-8.91.77,1.55-1.94,3.88-4.07,5.43a18.07,18.07,0,0,1-5.62,2.51c1.94-.58,2.52-5.23,2.91-6.78a28.69,28.69,0,0,0,.19-12.2,33.48,33.48,0,0,0-1.74-5.81.2.2,0,0,0-.2-.2,182.45,182.45,0,0,0-12.2-18s-4.26,5.23-9.11,12.2a14.74,14.74,0,0,0-1.35,3.1,23.53,23.53,0,0,0,1.16,16.66c-2.33-3.1-4.65-6.2-6-9.68l-1.16,2.32c-.77,2.71-2.13,4.84-2.13,7.56-.19,6.58,4.46,13,8.52,17.82-1.93-2.33-9.49-7.56-11.81-9.69l-.2-.19c0,.58-.19,1.16-.19,1.74,0,8.91,3.1,15.5,7.94,19.37a81.44,81.44,0,0,0,27.51,0C81.56,159.44,84.85,148.2,85.05,146.26Z"/><path class="cls-1"/><path class="cls-5" d="M179.91,91.11v54.57H165.67V91.11H146.59V79.44H199V91.11Z"/><path class="cls-5" d="M231.06,146.82q-12.33,0-18.69-6.83T206,121.39a32.75,32.75,0,0,1,1.66-10.78,23.17,23.17,0,0,1,4.74-8.16,20.18,20.18,0,0,1,7.5-5.12,26.64,26.64,0,0,1,9.92-1.76,26.27,26.27,0,0,1,9.87,1.76,20.49,20.49,0,0,1,7.4,5,22.25,22.25,0,0,1,4.7,7.83,30.12,30.12,0,0,1,1.66,10.3v4.17H220v.86a10.25,10.25,0,0,0,2.94,7.64q2.94,2.89,8.64,2.89a15.79,15.79,0,0,0,7.5-1.66,17.83,17.83,0,0,0,5.41-4.41l7.59,8.26a23.8,23.8,0,0,1-8,6.07Q238.94,146.82,231.06,146.82Zm-1.14-41.19a9.63,9.63,0,0,0-7.26,2.8A10.42,10.42,0,0,0,220,116v.76H239.7V116a10.61,10.61,0,0,0-2.61-7.6A9.42,9.42,0,0,0,229.92,105.63Z"/><path class="cls-5" d="M266.94,153.66h18.79V107.72h-19v-11h33v53.81a14.33,14.33,0,0,1-3.7,10.16q-3.7,4-11.2,4H266.94Zm25.82-63.22c-3.17,0-5.37-.64-6.6-1.94a6.59,6.59,0,0,1-1.85-4.7V81.05a6.56,6.56,0,0,1,1.85-4.75c1.23-1.26,3.43-1.9,6.6-1.9s5.28.64,6.54,1.9a6.44,6.44,0,0,1,1.9,4.75V83.8a6.47,6.47,0,0,1-1.9,4.7C298,89.8,295.86,90.44,292.76,90.44Z"/><path class="cls-5" d="M361.38,145.68a10.56,10.56,0,0,1-7-2.23,9.35,9.35,0,0,1-3.13-6.4h-.47a12.09,12.09,0,0,1-5.27,7.31,17.85,17.85,0,0,1-9.63,2.46q-7.12,0-11.44-3.84t-4.32-10.77q0-7.7,5.6-11.39t16.42-3.71H350v-2.46q0-4.37-2-6.6c-1.36-1.49-3.66-2.23-6.88-2.23a13.54,13.54,0,0,0-7.22,1.71,16.86,16.86,0,0,0-4.74,4.46l-7.69-6.83a18.41,18.41,0,0,1,7.73-6.89c3.52-1.8,8-2.7,13.53-2.7q10.06,0,15.71,4.6T364,114.08v21.45h5.41v10.15Zm-20.22-8.06a10.52,10.52,0,0,0,6.26-1.81,6,6,0,0,0,2.57-5.22v-5.88h-7.5q-8.64,0-8.64,5.79v1.9a4.4,4.4,0,0,0,2,3.89A9.47,9.47,0,0,0,341.16,137.62Z"/><path class="cls-5" d="M400,146.82a37.44,37.44,0,0,1-14.2-2.46,20.23,20.23,0,0,1-9.06-6.74l7.88-7.31a20.43,20.43,0,0,0,6.69,4.89A20.92,20.92,0,0,0,400.1,137a13.85,13.85,0,0,0,6.55-1.28,4.2,4.2,0,0,0,2.37-3.94,3,3,0,0,0-1.61-2.89,16,16,0,0,0-4.46-1.28l-7.88-1.24a32.4,32.4,0,0,1-6.17-1.47,16.31,16.31,0,0,1-4.94-2.7,12.58,12.58,0,0,1-3.32-4.18,13.31,13.31,0,0,1-1.23-6,14.18,14.18,0,0,1,5.88-12q5.9-4.36,16.52-4.37a34.37,34.37,0,0,1,12.29,2,19.31,19.31,0,0,1,8.11,5.55l-7,8a17.87,17.87,0,0,0-5.6-4,19.31,19.31,0,0,0-8.26-1.61q-8.16,0-8.16,4.94a3,3,0,0,0,1.61,3,16.73,16.73,0,0,0,4.46,1.28l7.79,1.23a33.36,33.36,0,0,1,6.17,1.47,16.79,16.79,0,0,1,5,2.71,12.3,12.3,0,0,1,3.37,4.17,13.31,13.31,0,0,1,1.23,6,14.36,14.36,0,0,1-5.93,12.15Q410.92,146.83,400,146.82Z"/><path class="cls-5" d="M457.52,146.82q-5.31,0-7.64-2.32a7.58,7.58,0,0,1-2.32-5.56v-3.32a7.57,7.57,0,0,1,2.32-5.55q2.33-2.32,7.64-2.32t7.64,2.32a7.58,7.58,0,0,1,2.33,5.55v3.32a7.59,7.59,0,0,1-2.33,5.56Q462.84,146.83,457.52,146.82Z"/><path class="cls-5" d="M527.28,145.68l-4.17-15.94H505l-4.08,15.94H486.47l17.94-66.24h20.12l17.94,66.24ZM514.47,93.2h-.76l-6.45,25h13.66Z"/><path class="cls-5" d="M550.06,145.68V135.15H564.3V90H550.06V79.44h42.71V90H578.53v45.18h14.24v10.53Z"/></g></g></svg>