<svg xmlns="http://www.w3.org/2000/svg" viewBox="0 0 125.92 164.67"><defs><style>.cls-1{fill:none;}.cls-2{fill:#f47e60;fill-rule:evenodd;}.cls-3{fill:#e15b64;}.cls-4{fill:#981a23;}</style></defs><title>Asset 1</title><g id="Layer_2" data-name="Layer 2"><g id="Layer_1-2" data-name="Layer 1"><path class="cls-1"/><path class="cls-2" d="M125.34,99.77C119,105.19,98.8,116.24,93,122.24c11.62-12,23.05-26.15,22.66-42.62-.19-7.17-3.87-12.4-6-19-1.16-1.94-2.33-3.68-3.49-5.62-4.26,8.52-10.85,16.46-17.63,24.21,6.78-13,8.33-27.89,3.3-41.26a69,69,0,0,0-3.68-7.56C74,12.79,61.41,0,61.41,0A439.27,439.27,0,0,0,26,44.36c-.19.2-.19.39-.39.78a65.15,65.15,0,0,0-5,14.53,66.32,66.32,0,0,0,.59,30.22c1,3.68,2.9,15.3,8.13,16.66a38,38,0,0,1-15.69-8.14c-2.71-2.32-12-11.23-9.69-15.11C0,89.69,0,97.25,0,104.22c0,38.56,28.28,59.48,63,59.48s63-21.12,63-59.67a33.57,33.57,0,0,0-.39-4.46A.19.19,0,0,1,125.34,99.77Z"/><path class="cls-3" d="M90.28,137.74a30.14,30.14,0,0,0-2.72-12.21c1,1.94-2.51,7.17-3.1,7.75-.38.58-3.1,4.27-5.61,5,2.32-.77,2.9-6.59,3.29-8.52,1-5.23.19-9.69-.78-14.73a31.7,31.7,0,0,0-2.13-7.36c0-.19-.19-.19-.19-.39a199.07,199.07,0,0,0-15.3-22.47s-5.43,6.39-11.63,15.5a23.49,23.49,0,0,0-1.55,3.87C48.24,111,49,118.56,51.92,125.15c-2.91-3.88-5.81-8-7.56-12.21-.58,1-1,1.94-1.55,2.91-1,3.29-2.52,6-2.71,9.68-.19,8.33,5.62,16.28,10.66,22.48-2.52-3.1-12-9.5-14.73-12.21l-.19-.19c0,.77-.19,1.55-.19,2.32,0,11.63,4.45,20.15,11,25.19a86.17,86.17,0,0,0,32.54,0C85.82,157.89,90.28,149.36,90.28,137.74Z"/><path class="cls-4" d="M85.05,146.26c.19-2.13.58-6.39-1-8.91.77,1.55-1.94,3.88-4.07,5.43a18.07,18.07,0,0,1-5.62,2.51c1.94-.58,2.52-5.23,2.91-6.78a28.69,28.69,0,0,0,.19-12.2,33.48,33.48,0,0,0-1.74-5.81.2.2,0,0,0-.2-.2,182.45,182.45,0,0,0-12.2-18s-4.26,5.23-9.11,12.2a14.74,14.74,0,0,0-1.35,3.1,23.53,23.53,0,0,0,1.16,16.66c-2.33-3.1-4.65-6.2-6-9.68l-1.16,2.32c-.77,2.71-2.13,4.84-2.13,7.56-.19,6.58,4.46,13,8.52,17.82-1.93-2.33-9.49-7.56-11.81-9.69l-.2-.19c0,.58-.19,1.16-.19,1.74,0,8.91,3.1,15.5,7.94,19.37a81.44,81.44,0,0,0,27.51,0C81.56,159.44,84.85,148.2,85.05,146.26Z"/><path class="cls-1"/></g></g></svg>