<?xml version="1.0" standalone="no"?>
<!DOCTYPE svg PUBLIC "-//W3C//DTD SVG 20010904//EN"
 "http://www.w3.org/TR/2001/REC-SVG-20010904/DTD/svg10.dtd">
<svg version="1.0" xmlns="http://www.w3.org/2000/svg"
 width="165.000000pt" height="165.000000pt" viewBox="0 0 165.000000 165.000000"
 preserveAspectRatio="xMidYMid meet">
<metadata>
Created by potrace 1.11, written by Peter Selinger 2001-2013
</metadata>
<g transform="translate(0.000000,165.000000) scale(0.100000,-0.100000)"
fill="#000000" stroke="none">
<path d="M749 1577 c-35 -40 -77 -90 -94 -111 -16 -21 -35 -44 -41 -50 -35
-36 -159 -214 -175 -251 -29 -66 -49 -169 -49 -257 0 -88 31 -237 60 -285 l19
-33 -37 15 c-58 25 -110 64 -152 117 -21 27 -41 54 -44 61 -8 21 -24 -13 -31
-66 -23 -165 8 -326 84 -444 82 -127 177 -190 389 -258 69 -23 280 -17 327 8
17 9 36 17 44 17 8 0 52 18 97 40 140 68 244 191 288 339 17 59 32 192 23 215
-4 10 -34 -4 -119 -59 -62 -40 -126 -84 -143 -97 -21 -17 -14 -2 29 52 96 124
138 229 131 329 -4 52 -71 222 -90 227 -5 2 -29 -27 -53 -64 -24 -37 -59 -85
-78 -107 l-34 -40 21 60 c15 43 21 87 22 155 2 109 -16 181 -62 250 -27 40
-189 230 -246 288 l-23 22 -63 -73z"/>
</g>
</svg>
